<?xml version="1.0" encoding="utf-8"?>
<svg viewBox="172.749 93.391 116.541 23.721" xmlns="http://www.w3.org/2000/svg">
  <path d="M 174.783 109.922 L 185.018 104.872 L 174.783 100 L 174.783 95.715 L 188.383 102.353 L 188.383 107.429 L 174.783 114.26 L 174.783 109.922 Z" style="fill: rgb(0, 187, 255); white-space: pre; filter: none;"/>
  <path d="M 193.82 107.242 L 195.728 107.242 Q 196.773 107.242 197.617 106.943 Q 198.461 106.644 199.059 106.108 Q 199.647 105.581 199.968 104.851 Q 200.289 104.122 200.289 103.26 Q 200.289 102.337 199.968 101.581 Q 199.647 100.826 199.059 100.281 Q 198.461 99.745 197.617 99.441 Q 196.773 99.138 195.728 99.138 L 191.351 99.138 L 191.351 111.935 L 193.82 111.935 Z M 193.82 105.238 L 193.82 101.142 L 195.728 101.142 Q 196.255 101.142 196.642 101.309 Q 197.028 101.476 197.292 101.766 Q 197.547 102.056 197.674 102.443 Q 197.802 102.83 197.802 103.278 Q 197.802 103.664 197.674 104.02 Q 197.547 104.376 197.292 104.649 Q 197.028 104.921 196.642 105.08 Q 196.255 105.238 195.728 105.238 Z M 202.829 111.935 L 205.061 111.935 L 206.133 105.027 L 206.23 104.376 L 206.327 105.027 L 207.443 111.935 L 209.675 111.935 L 211.451 99.138 L 209.183 99.138 L 208.313 106.31 L 208.251 106.846 L 208.172 106.319 L 207.1 99.138 L 205.334 99.138 L 204.323 106.266 L 204.244 106.793 L 204.182 106.292 L 203.33 99.138 L 201.071 99.138 Z M 219.44 108.595 Q 219.44 108.938 219.299 109.224 Q 219.158 109.509 218.895 109.711 Q 218.631 109.914 218.249 110.028 Q 217.866 110.142 217.374 110.142 Q 216.82 110.142 216.359 110.019 Q 215.898 109.896 215.572 109.632 Q 215.238 109.369 215.054 108.956 Q 214.869 108.542 214.852 107.962 L 212.426 107.962 Q 212.426 108.956 212.808 109.694 Q 213.19 110.432 213.85 110.977 Q 214.544 111.531 215.48 111.816 Q 216.416 112.102 217.374 112.102 Q 218.35 112.102 219.176 111.869 Q 220.002 111.636 220.6 111.179 Q 221.197 110.731 221.536 110.076 Q 221.874 109.421 221.874 108.578 Q 221.874 107.602 221.426 106.855 Q 220.978 106.108 220.222 105.545 Q 219.721 105.203 219.123 104.939 Q 218.525 104.675 217.866 104.491 Q 217.251 104.324 216.763 104.13 Q 216.275 103.937 215.933 103.7 Q 215.59 103.471 215.41 103.181 Q 215.23 102.891 215.23 102.531 Q 215.23 102.188 215.366 101.893 Q 215.502 101.599 215.766 101.379 Q 216.029 101.168 216.412 101.05 Q 216.794 100.931 217.286 100.931 Q 217.822 100.931 218.222 101.076 Q 218.622 101.221 218.895 101.476 Q 219.158 101.74 219.294 102.1 Q 219.431 102.46 219.448 102.891 L 221.857 102.891 Q 221.857 102.03 221.523 101.309 Q 221.189 100.588 220.591 100.061 Q 219.993 99.542 219.163 99.252 Q 218.332 98.962 217.33 98.962 Q 216.363 98.962 215.537 99.213 Q 214.711 99.463 214.105 99.929 Q 213.498 100.395 213.155 101.054 Q 212.813 101.713 212.813 102.522 Q 212.813 103.225 213.072 103.823 Q 213.331 104.42 213.841 104.913 Q 214.351 105.405 215.155 105.818 Q 215.959 106.231 217.023 106.521 Q 217.708 106.706 218.169 106.921 Q 218.631 107.136 218.921 107.391 Q 219.202 107.655 219.321 107.954 Q 219.44 108.252 219.44 108.595 Z M 232.043 111.935 L 232.043 99.138 L 229.599 99.138 L 229.599 104.385 L 225.978 104.385 L 225.978 99.138 L 223.526 99.138 L 223.526 111.935 L 225.978 111.935 L 225.978 106.389 L 229.599 106.389 L 229.599 111.935 Z M 234.38 111.935 L 239.047 111.935 Q 240.102 111.935 240.945 111.698 Q 241.789 111.46 242.378 110.986 Q 242.967 110.511 243.283 109.808 Q 243.6 109.105 243.6 108.182 Q 243.6 107.699 243.472 107.246 Q 243.345 106.793 243.081 106.407 Q 242.826 106.046 242.453 105.774 Q 242.079 105.501 241.446 105.326 L 241.446 105.317 Q 241.772 105.194 242.04 105.018 Q 242.308 104.842 242.519 104.631 Q 242.905 104.245 243.103 103.73 Q 243.301 103.216 243.31 102.636 Q 243.31 101.74 242.98 101.081 Q 242.651 100.421 242.044 99.991 Q 241.438 99.56 240.581 99.349 Q 239.724 99.138 238.678 99.138 L 234.38 99.138 Z M 236.859 106.292 L 239.161 106.292 Q 239.68 106.301 240.058 106.433 Q 240.436 106.565 240.673 106.811 Q 240.91 107.048 241.02 107.391 Q 241.13 107.734 241.13 108.164 Q 241.13 108.578 240.985 108.912 Q 240.84 109.246 240.559 109.483 Q 240.304 109.694 239.922 109.817 Q 239.539 109.94 239.056 109.94 L 236.859 109.94 Z M 236.859 104.508 L 236.859 101.151 L 238.687 101.151 Q 239.284 101.16 239.728 101.283 Q 240.172 101.406 240.436 101.678 Q 240.638 101.872 240.739 102.162 Q 240.84 102.452 240.84 102.838 Q 240.84 103.207 240.721 103.497 Q 240.603 103.788 240.383 103.99 Q 240.119 104.245 239.689 104.372 Q 239.258 104.499 238.695 104.508 Z M 253.726 99.138 L 251.274 99.138 L 251.265 107.62 Q 251.256 108.244 251.133 108.718 Q 251.01 109.193 250.764 109.509 Q 250.535 109.817 250.188 109.971 Q 249.841 110.124 249.393 110.124 Q 248.98 110.124 248.663 109.979 Q 248.347 109.834 248.127 109.544 Q 247.89 109.228 247.771 108.745 Q 247.652 108.261 247.644 107.62 L 247.635 99.138 L 245.165 99.138 L 245.156 107.62 Q 245.156 108.692 245.46 109.531 Q 245.763 110.371 246.317 110.942 Q 246.87 111.513 247.648 111.812 Q 248.426 112.111 249.393 112.111 Q 250.421 112.111 251.225 111.812 Q 252.029 111.513 252.592 110.933 Q 253.146 110.362 253.44 109.527 Q 253.735 108.692 253.735 107.62 Z M 256.547 99.138 L 256.547 101.133 L 258.981 101.133 L 258.981 109.949 L 256.547 109.949 L 256.547 111.935 L 263.947 111.935 L 263.947 109.949 L 261.451 109.949 L 261.451 101.133 L 263.947 101.133 L 263.947 99.138 Z M 269.448 109.94 L 269.448 99.138 L 266.97 99.138 L 266.97 111.935 L 275.443 111.935 L 275.443 109.94 Z M 277.552 111.935 L 280.988 111.935 Q 281.841 111.935 282.592 111.724 Q 283.344 111.513 283.968 111.118 Q 284.504 110.784 284.952 110.287 Q 285.4 109.79 285.734 109.202 Q 286.086 108.542 286.279 107.751 Q 286.472 106.96 286.472 106.073 L 286.472 105.018 Q 286.472 104.095 286.266 103.278 Q 286.059 102.46 285.681 101.784 Q 285.356 101.23 284.921 100.76 Q 284.486 100.289 283.932 99.964 Q 283.3 99.569 282.526 99.353 Q 281.753 99.138 280.865 99.138 L 277.552 99.138 Z M 280.039 101.142 L 280.865 101.142 Q 281.313 101.142 281.696 101.243 Q 282.078 101.344 282.394 101.529 Q 282.807 101.775 283.119 102.162 Q 283.431 102.548 283.625 103.04 Q 283.783 103.454 283.866 103.95 Q 283.95 104.447 283.95 105 L 283.95 106.073 Q 283.95 106.662 283.866 107.167 Q 283.783 107.672 283.625 108.085 Q 283.431 108.56 283.163 108.916 Q 282.895 109.272 282.561 109.5 Q 282.236 109.72 281.841 109.834 Q 281.445 109.949 280.988 109.949 L 280.039 109.949 Z" style="fill: rgb(51, 51, 51); white-space: pre;"/>
</svg>